<svg role="img" viewBox="0 0 58 27">
        
      <title>logo-stuurmen</title><path d="M41.47 14.652c-.895 1.977-1.75 3.983-2.82 5.868-.627 1.123-1.3 2.285-2.285 3.122-2.023 1.715-5.709 2.063-6.438-1.054.074-.114.154-.222.222-.33 2.108-3.344 3.447-7.195 5.162-10.745 1.356-2.791 8.842-15.929 11.6-7.115-2.257 3.167-3.846 6.734-5.442 10.254m-14.538 8.99c-2.012 1.704-5.669 2.057-6.421-1.014.085-.12.177-.245.25-.37 2.114-3.344 3.447-7.195 5.168-10.745 1.35-2.786 8.808-15.878 11.576-7.161-2.267 3.179-3.868 6.762-5.469 10.3-.889 1.977-1.749 3.983-2.814 5.868-.633 1.123-1.3 2.285-2.29 3.122m-9.39 0c-2.01 1.704-5.674 2.057-6.42-1.025.086-.12.171-.24.245-.36 2.108-3.343 3.447-7.194 5.167-10.744 1.35-2.786 8.814-15.889 11.583-7.15-2.268 3.174-3.863 6.757-5.464 10.29-.894 1.976-1.749 3.982-2.82 5.867-.627 1.123-1.299 2.285-2.29 3.122M57.957 3.965C57.273 1.777 55.564.113 53.17.005c-2.176-.097-3.794 1.282-5.11 2.871-.855-1.629-2.347-2.785-4.318-2.87-2.165-.098-3.778 1.264-5.088 2.836-.854-1.606-2.341-2.751-4.301-2.837-2.165-.097-3.777 1.265-5.093 2.843-.85-1.612-2.342-2.757-4.302-2.843-2.723-.125-4.586 2.068-6.056 4.08-2.37 3.235-3.999 6.927-5.651 10.567-.889 1.977-1.75 3.983-2.814 5.868-.633 1.123-1.3 2.285-2.29 3.122-2.092 1.772-5.988 2.125-6.524-1.356-.165-1.06-1.777-.61-1.612.445.359 2.341 2.188 3.948 4.563 4.033 2.148.074 3.92-1.054 5.304-2.558.758 1.516 2.262 2.496 4.096 2.558 2.143.074 3.909-1.048 5.293-2.552.758 1.51 2.262 2.49 4.09 2.552 2.16.08 3.943-1.065 5.327-2.586.758 1.532 2.262 2.524 4.108 2.586 3.008.109 5.292-2.13 6.785-4.506 2.114-3.344 3.447-7.195 5.167-10.745 1.35-2.791 8.842-15.94 11.6-7.104.319 1.025 1.937.587 1.612-.444" fill-rule="evenodd"></path></svg>